<svg width="115" height="10" viewBox="0 0 115 10" fill="none" xmlns="http://www.w3.org/2000/svg">
<path d="M3.61447 2.696L3.31447 4.448H6.06247L5.78647 5.996H3.03847L2.70247 7.88H5.81047L5.52247 9.5H0.362469L1.85047 1.076H7.01047L6.72247 2.696H3.61447ZM14.3907 9.5H12.3387L9.83066 4.304L8.90666 9.5H6.85466L8.34266 1.076H10.3947L12.9027 6.296L13.8267 1.076H15.8787L14.3907 9.5ZM16.2861 5.276C16.4301 4.444 16.7381 3.704 17.2101 3.056C17.6901 2.4 18.2861 1.892 18.9981 1.532C19.7101 1.164 20.4821 0.98 21.3141 0.98C22.3221 0.98 23.1301 1.224 23.7381 1.712C24.3541 2.2 24.6901 2.876 24.7461 3.74H22.4901C22.3861 3.46 22.2021 3.248 21.9381 3.104C21.6821 2.952 21.3661 2.876 20.9901 2.876C20.3261 2.876 19.7541 3.096 19.2741 3.536C18.8021 3.968 18.5021 4.548 18.3741 5.276C18.3341 5.516 18.3141 5.724 18.3141 5.9C18.3141 6.492 18.4861 6.948 18.8301 7.268C19.1741 7.588 19.6621 7.748 20.2941 7.748C20.8061 7.748 21.2581 7.62 21.6501 7.364C22.0421 7.1 22.3581 6.728 22.5981 6.248H20.0061L20.2581 4.748H24.7221L24.3861 6.656C24.1461 7.168 23.8021 7.644 23.3541 8.084C22.9141 8.524 22.3901 8.88 21.7821 9.152C21.1741 9.424 20.5181 9.56 19.8141 9.56C19.0861 9.56 18.4461 9.42 17.8941 9.14C17.3501 8.852 16.9301 8.452 16.6341 7.94C16.3461 7.428 16.2021 6.832 16.2021 6.152C16.2021 5.92 16.2301 5.628 16.2861 5.276ZM27.3467 7.94H30.0347L29.7587 9.5H25.0187L26.5067 1.076H28.5587L27.3467 7.94ZM34.2775 1.076L32.7895 9.5H30.7375L32.2255 1.076H34.2775ZM37.6245 9.584C36.7125 9.584 35.9685 9.388 35.3925 8.996C34.8245 8.596 34.5405 8.032 34.5405 7.304C34.5405 7.232 34.5485 7.124 34.5645 6.98H36.7005C36.6765 7.284 36.7485 7.524 36.9165 7.7C37.0845 7.876 37.3405 7.964 37.6845 7.964C37.9965 7.964 38.2405 7.896 38.4165 7.76C38.6005 7.624 38.6925 7.432 38.6925 7.184C38.6925 6.928 38.5765 6.72 38.3445 6.56C38.1205 6.4 37.7685 6.22 37.2885 6.02C36.8245 5.828 36.4445 5.648 36.1485 5.48C35.8605 5.304 35.6085 5.068 35.3925 4.772C35.1765 4.476 35.0685 4.104 35.0685 3.656C35.0605 3.104 35.1965 2.624 35.4765 2.216C35.7565 1.808 36.1445 1.496 36.6405 1.28C37.1365 1.064 37.7045 0.956 38.3445 0.956C38.9205 0.956 39.4325 1.048 39.8805 1.232C40.3285 1.408 40.6765 1.668 40.9245 2.012C41.1725 2.348 41.2965 2.748 41.2965 3.212C41.2965 3.332 41.2925 3.42 41.2845 3.476H39.1005C39.1085 3.444 39.1125 3.396 39.1125 3.332C39.1125 3.108 39.0325 2.928 38.8725 2.792C38.7205 2.648 38.5085 2.576 38.2365 2.576C37.9485 2.576 37.7125 2.648 37.5285 2.792C37.3525 2.928 37.2645 3.116 37.2645 3.356C37.2645 3.596 37.3765 3.8 37.6005 3.968C37.8245 4.128 38.1725 4.316 38.6445 4.532C39.1165 4.748 39.5005 4.948 39.7965 5.132C40.1005 5.316 40.3605 5.564 40.5765 5.876C40.7925 6.18 40.9005 6.556 40.9005 7.004C40.9005 7.5 40.7685 7.944 40.5045 8.336C40.2405 8.728 39.8605 9.036 39.3645 9.26C38.8685 9.476 38.2885 9.584 37.6245 9.584ZM50.5254 1.076L49.0374 9.5H46.9854L47.5974 6.008H44.4054L43.7934 9.5H41.7414L43.2294 1.076H45.2814L44.6934 4.388H47.8854L48.4734 1.076H50.5254ZM60.9281 3.26C60.8401 3.756 60.6361 4.168 60.3161 4.496C59.9961 4.824 59.6121 5.052 59.1641 5.18C59.5641 5.268 59.8801 5.464 60.1121 5.768C60.3441 6.072 60.4601 6.428 60.4601 6.836C60.4601 6.964 60.4481 7.088 60.4241 7.208C60.3041 7.912 59.9601 8.472 59.3921 8.888C58.8241 9.296 58.1001 9.5 57.2201 9.5H53.2961L54.7841 1.076H58.5761C59.3361 1.076 59.9241 1.232 60.3401 1.544C60.7561 1.856 60.9641 2.288 60.9641 2.84C60.9641 2.976 60.9521 3.116 60.9281 3.26ZM57.5681 4.496C57.9121 4.496 58.1881 4.42 58.3961 4.268C58.6041 4.116 58.7321 3.896 58.7801 3.608C58.7881 3.56 58.7921 3.496 58.7921 3.416C58.7921 3.184 58.7161 3.008 58.5641 2.888C58.4121 2.76 58.1881 2.696 57.8921 2.696H56.5481L56.2361 4.496H57.5681ZM58.3841 6.932C58.4001 6.836 58.4081 6.764 58.4081 6.716C58.4081 6.484 58.3241 6.304 58.1561 6.176C57.9881 6.04 57.7561 5.972 57.4601 5.972H55.9721L55.6361 7.868H57.1481C57.5001 7.868 57.7801 7.788 57.9881 7.628C58.1961 7.468 58.3281 7.236 58.3841 6.932ZM69.9182 1.076L66.0182 6.716L65.5142 9.5H63.4622L63.9662 6.716L62.0342 1.076H64.3622L65.3702 4.592L67.6142 1.076H69.9182ZM77.5423 8.012H74.3983L73.6303 9.5H71.4823L76.0183 1.076H78.3943L79.9543 9.5H77.7823L77.5423 8.012ZM77.3023 6.452L76.8103 3.332L75.2023 6.452H77.3023ZM81.29 5.276C81.434 4.444 81.742 3.704 82.214 3.056C82.694 2.4 83.286 1.892 83.99 1.532C84.694 1.164 85.454 0.98 86.27 0.98C87.27 0.98 88.078 1.244 88.694 1.772C89.318 2.3 89.67 3.02 89.75 3.932H87.494C87.39 3.588 87.198 3.328 86.918 3.152C86.646 2.968 86.31 2.876 85.91 2.876C85.278 2.876 84.73 3.096 84.266 3.536C83.802 3.968 83.506 4.548 83.378 5.276C83.338 5.5 83.318 5.696 83.318 5.864C83.318 6.424 83.474 6.868 83.786 7.196C84.098 7.524 84.526 7.688 85.07 7.688C85.462 7.688 85.826 7.596 86.162 7.412C86.506 7.228 86.794 6.964 87.026 6.62H89.282C88.882 7.532 88.278 8.252 87.47 8.78C86.662 9.3 85.758 9.56 84.758 9.56C84.038 9.56 83.41 9.42 82.874 9.14C82.338 8.86 81.926 8.464 81.638 7.952C81.35 7.44 81.206 6.844 81.206 6.164C81.206 5.86 81.234 5.564 81.29 5.276ZM98.8066 1.076L97.3186 9.5H95.2666L95.8786 6.008H92.6866L92.0746 9.5H90.0226L91.5106 1.076H93.5626L92.9746 4.388H96.1666L96.7546 1.076H98.8066ZM102.34 1.076L100.852 9.5H98.8L100.288 1.076H102.34ZM109.875 9.5H107.823L105.315 4.304L104.391 9.5H102.339L103.827 1.076H105.879L108.387 6.296L109.311 1.076H111.363L109.875 9.5ZM114.902 1.076L113.414 9.5H111.362L112.85 1.076H114.902Z" fill="#F5F5F5"/>
</svg>
